<?xml version="1.0" encoding="UTF-8"?>
<!DOCTYPE svg PUBLIC "-//W3C//DTD SVG 1.1//EN" "http://www.w3.org/Graphics/SVG/1.1/DTD/svg11.dtd">
<svg xmlns="http://www.w3.org/2000/svg" version="1.1" width="1080px" height="1350px" style="shape-rendering:geometricPrecision; text-rendering:geometricPrecision; image-rendering:optimizeQuality; fill-rule:evenodd; clip-rule:evenodd" xmlns:xlink="http://www.w3.org/1999/xlink">
<g><path style="opacity:1" fill="#f9faf9" d="M 210.5,545.5 C 240.79,542.892 259.957,556.225 268,585.5C 269.265,593.469 269.598,601.469 269,609.5C 268.654,611.848 267.487,613.681 265.5,615C 262.5,615.667 259.5,615.667 256.5,615C 255.299,614.097 254.465,612.931 254,611.5C 253.847,602.45 253.18,593.45 252,584.5C 246.524,569.703 235.858,561.703 220,560.5C 203.757,561.747 193.091,570.08 188,585.5C 187.882,594.56 187.215,603.56 186,612.5C 184.314,614.919 181.981,615.919 179,615.5C 176.648,615.695 174.648,615.028 173,613.5C 166.761,589.605 172.928,569.772 191.5,554C 197.453,550.081 203.786,547.248 210.5,545.5 Z"/></g>
<g><path style="opacity:1" fill="#f9faf9" d="M 497.5,626.5 C 500.559,626.797 503.059,628.13 505,630.5C 515.813,655.457 527.147,680.124 539,704.5C 539.497,706.81 539.663,709.143 539.5,711.5C 532.566,712.824 525.899,712.657 519.5,711C 517.283,707.542 514.617,704.542 511.5,702C 502.167,701.333 492.833,701.333 483.5,702C 481.167,705 478.833,708 476.5,711C 475,711.5 473.5,712 472,712.5C 466.884,711.575 461.717,711.242 456.5,711.5C 456.351,708.393 456.851,705.393 458,702.5C 469.59,678.318 480.924,653.984 492,629.5C 493.719,628.131 495.552,627.131 497.5,626.5 Z M 497.5,665.5 C 499.443,667.395 500.943,669.728 502,672.5C 503.314,675.089 503.981,677.756 504,680.5C 499.934,681.464 495.767,681.797 491.5,681.5C 492.903,675.958 494.903,670.625 497.5,665.5 Z"/></g>
<g><path style="opacity:1" fill="#f9faf9" d="M 665.5,626.5 C 682.584,625.298 696.418,631.298 707,644.5C 711.415,652.077 713.582,660.244 713.5,669C 712.32,678.214 711.154,687.38 710,696.5C 714.88,700.203 718.38,704.869 720.5,710.5C 720.392,711.442 720.059,712.275 719.5,713C 712.167,713.667 704.833,713.667 697.5,713C 695.152,711.16 692.485,709.993 689.5,709.5C 669.258,717.046 651.425,713.38 636,698.5C 623.477,679.523 623.477,660.523 636,641.5C 644.218,633.141 654.052,628.141 665.5,626.5 Z M 664.5,648.5 C 685.785,648.297 693.952,658.631 689,679.5C 681.311,692.147 670.811,694.98 657.5,688C 646.888,675.929 646.888,663.929 657.5,652C 659.925,650.787 662.259,649.621 664.5,648.5 Z"/></g>
<g><path style="opacity:1" fill="#f9faf9" d="M 900.5,626.5 C 913.333,625.276 924.166,629.276 933,638.5C 935.966,642.727 937.299,647.393 937,652.5C 930.626,654.991 924.126,655.158 917.5,653C 911.37,645.768 904.203,644.601 896,649.5C 893.553,653.197 894.053,656.364 897.5,659C 906.7,661.486 916.033,663.486 925.5,665C 937.91,670.997 942.41,680.83 939,694.5C 932.442,707.042 921.942,713.375 907.5,713.5C 898.137,713.329 889.471,710.829 881.5,706C 866.339,688.569 870.005,681.902 892.5,686C 899.67,694.453 907.837,695.62 917,689.5C 918.917,686.669 918.417,684.169 915.5,682C 908.921,680.511 902.254,679.511 895.5,679C 874.403,672.969 868.237,659.802 877,639.5C 883.368,632.402 891.201,628.068 900.5,626.5 Z"/></g>
<g><path style="opacity:1" fill="#1100a8" d="M 139.5,627.5 C 193.168,627.333 246.834,627.5 300.5,628C 311.79,631.724 317.957,639.557 319,651.5C 324.427,704.675 329.927,757.842 335.5,811C 334.302,825.09 326.969,834.09 313.5,838C 290.5,838.667 267.5,838.667 244.5,838C 220.038,830.593 208.871,814.093 211,788.5C 214.547,777.146 217.38,765.646 219.5,754C 217.94,734.94 207.606,724.773 188.5,723.5C 186.167,723.667 183.833,723.833 181.5,724C 174.276,726.408 166.943,728.408 159.5,730C 142.319,731.162 129.486,724.328 121,709.5C 118.554,703.936 117.387,698.103 117.5,692C 118.703,676.805 120.203,661.638 122,646.5C 124.928,637.408 130.762,631.075 139.5,627.5 Z"/></g>
<g><path style="opacity:1" fill="#f9faf9" d="M 367.5,627.5 C 370.09,627.918 372.423,628.918 374.5,630.5C 384.905,641.068 395.071,651.735 405,662.5C 415.836,651.997 426.336,641.164 436.5,630C 440.04,626.982 443.207,627.149 446,630.5C 446.667,656.833 446.667,683.167 446,709.5C 443.173,711.961 439.84,712.961 436,712.5C 432.158,712.593 428.491,711.926 425,710.5C 424.218,699.681 423.384,688.681 422.5,677.5C 417.776,681.549 413.443,686.049 409.5,691C 407.305,692.373 404.971,692.706 402.5,692C 397.652,686.985 392.652,682.152 387.5,677.5C 386.668,688.151 386.168,698.818 386,709.5C 384.53,711.152 382.697,712.152 380.5,712.5C 376.658,712.447 372.825,712.447 369,712.5C 365.156,710.825 363.323,707.825 363.5,703.5C 364.643,680.072 364.643,656.739 363.5,633.5C 363.866,630.744 365.2,628.744 367.5,627.5 Z"/></g>
<g><path style="opacity:1" fill="#f9faf9" d="M 552.5,627.5 C 564.838,627.333 577.171,627.5 589.5,628C 610.761,631.971 619.594,644.804 616,666.5C 613.83,672.809 610.663,678.476 606.5,683.5C 610.147,690.793 614.314,697.793 619,704.5C 620.202,706.677 620.702,709.011 620.5,711.5C 612.826,711.666 605.159,711.5 597.5,711C 591.883,704.941 587.383,698.108 584,690.5C 581.039,687.384 577.539,686.717 573.5,688.5C 572.585,689.328 571.919,690.328 571.5,691.5C 572.118,696.343 572.451,701.176 572.5,706C 572.385,707.895 571.718,709.562 570.5,711C 565.803,711.28 561.137,711.78 556.5,712.5C 554.541,712.125 552.707,711.459 551,710.5C 550.582,706.822 550.082,703.155 549.5,699.5C 549.39,676.925 549.557,654.258 550,631.5C 550.48,629.867 551.313,628.534 552.5,627.5 Z M 574.5,647.5 C 580.38,647.048 586.047,647.882 591.5,650C 595.611,655.573 595.278,660.906 590.5,666C 585.238,667.439 579.904,667.772 574.5,667C 574,666.5 573.5,666 573,665.5C 572.61,661.486 572.11,657.486 571.5,653.5C 571.628,651.045 572.628,649.045 574.5,647.5 Z"/></g>
<g><path style="opacity:1" fill="#f9faf9" d="M 729.5,627.5 C 734.179,627.334 738.845,627.501 743.5,628C 745.333,628.5 746.5,629.667 747,631.5C 746.428,650.458 746.761,669.458 748,688.5C 753.863,694.004 760.363,694.837 767.5,691C 769.487,689.681 770.654,687.848 771,685.5C 771.333,667.167 771.667,648.833 772,630.5C 772.5,629.333 773.333,628.5 774.5,628C 780.195,627.374 785.862,627.541 791.5,628.5C 792.964,650.173 792.798,671.84 791,693.5C 784.907,706.812 774.407,713.479 759.5,713.5C 745.237,713.793 734.737,707.793 728,695.5C 727.055,691.886 726.388,688.219 726,684.5C 725.871,671.029 725.705,657.695 725.5,644.5C 725.667,640.167 725.833,635.833 726,631.5C 726.69,629.65 727.856,628.316 729.5,627.5 Z"/></g>
<g><path style="opacity:1" fill="#f9faf9" d="M 815.5,627.5 C 827.807,627.952 839.807,627.952 851.5,627.5C 859.731,626.435 863.065,629.935 861.5,638C 861.333,640.5 861.167,643 861,645.5C 860.5,646 860,646.5 859.5,647C 851.167,647.333 842.833,647.667 834.5,648C 831.589,648.647 830.255,650.481 830.5,653.5C 830.39,655.374 831.056,656.874 832.5,658C 840.167,658.333 847.833,658.667 855.5,659C 856.416,659.374 857.25,659.874 858,660.5C 858.806,666.084 858.639,671.584 857.5,677C 849.603,678.27 841.603,678.937 833.5,679C 830.342,682.076 829.675,685.742 831.5,690C 831.905,690.945 832.572,691.612 833.5,692C 842.548,692.194 851.548,692.694 860.5,693.5C 861.192,694.025 861.692,694.692 862,695.5C 862.667,700.167 862.667,704.833 862,709.5C 861.612,710.428 860.945,711.095 860,711.5C 848.08,712.27 836.08,712.604 824,712.5C 819.833,712.333 815.667,712.167 811.5,712C 810.667,711.167 809.833,710.333 809,709.5C 808.333,683.167 808.333,656.833 809,630.5C 810.991,629.008 813.158,628.008 815.5,627.5 Z"/></g>
<g><path style="opacity:1" fill="#f9faf9" d="M 497.5,727.5 C 500.559,727.797 503.059,729.13 505,731.5C 515.813,756.457 527.147,781.124 539,805.5C 539.497,807.81 539.663,810.143 539.5,812.5C 532.566,813.824 525.899,813.657 519.5,812C 517.283,808.542 514.617,805.542 511.5,803C 502.167,802.333 492.833,802.333 483.5,803C 481.167,806 478.833,809 476.5,812C 475,812.5 473.5,813 472,813.5C 466.884,812.575 461.717,812.242 456.5,812.5C 456.351,809.393 456.851,806.393 458,803.5C 469.59,779.318 480.924,754.984 492,730.5C 493.719,729.131 495.552,728.131 497.5,727.5 Z M 497.5,766.5 C 499.443,768.395 500.943,770.728 502,773.5C 503.314,776.089 503.981,778.756 504,781.5C 499.934,782.464 495.767,782.797 491.5,782.5C 492.903,776.958 494.903,771.625 497.5,766.5 Z"/></g>
<g><path style="opacity:1" fill="#f9faf9" d="M 580.5,727.5 C 601.985,725.395 616.652,734.229 624.5,754C 624.265,754.873 623.931,755.707 623.5,756.5C 617.528,757.664 611.528,757.83 605.5,757C 593.605,745.376 581.772,745.209 570,756.5C 566.298,764.585 565.632,772.919 568,781.5C 573.483,791.653 581.983,795.487 593.5,793C 598.965,791.903 601.631,788.903 601.5,784C 597.167,783.667 592.833,783.333 588.5,783C 586.627,780.887 585.627,778.387 585.5,775.5C 585.903,772.239 586.57,769.072 587.5,766C 593.756,764.897 600.089,764.397 606.5,764.5C 611.833,764.667 617.167,764.833 622.5,765C 623.624,765.249 624.624,765.749 625.5,766.5C 629.251,789.509 620.251,805.009 598.5,813C 578.887,817.231 562.72,811.731 550,796.5C 541.543,779.908 541.377,763.241 549.5,746.5C 557.191,735.823 567.525,729.489 580.5,727.5 Z"/></g>
<g><path style="opacity:1" fill="#f9faf9" d="M 671.5,727.5 C 674.559,727.797 677.059,729.13 679,731.5C 689.813,756.457 701.147,781.124 713,805.5C 713.497,807.81 713.663,810.143 713.5,812.5C 706.566,813.824 699.899,813.657 693.5,812C 691.283,808.542 688.617,805.542 685.5,803C 676.167,802.333 666.833,802.333 657.5,803C 655.167,806 652.833,809 650.5,812C 649,812.5 647.5,813 646,813.5C 640.884,812.575 635.717,812.242 630.5,812.5C 630.351,809.393 630.851,806.393 632,803.5C 643.59,779.318 654.924,754.984 666,730.5C 667.719,729.131 669.552,728.131 671.5,727.5 Z M 671.5,766.5 C 673.443,768.395 674.943,770.728 676,773.5C 677.314,776.089 677.981,778.756 678,781.5C 673.934,782.464 669.767,782.797 665.5,782.5C 666.903,776.958 668.903,771.625 671.5,766.5 Z"/></g>
<g><path style="opacity:1" fill="#f9faf9" d="M 367.5,728.5 C 370.09,728.918 372.423,729.918 374.5,731.5C 384.905,742.068 395.071,752.735 405,763.5C 415.836,752.997 426.336,742.164 436.5,731C 440.04,727.982 443.207,728.149 446,731.5C 446.667,757.833 446.667,784.167 446,810.5C 443.173,812.961 439.84,813.961 436,813.5C 432.158,813.593 428.491,812.926 425,811.5C 424.218,800.681 423.384,789.681 422.5,778.5C 417.776,782.549 413.443,787.049 409.5,792C 407.305,793.373 404.971,793.706 402.5,793C 397.652,787.985 392.652,783.152 387.5,778.5C 386.668,789.151 386.168,799.818 386,810.5C 384.53,812.152 382.697,813.152 380.5,813.5C 376.658,813.447 372.825,813.447 369,813.5C 365.156,811.825 363.323,808.825 363.5,804.5C 364.643,781.072 364.643,757.739 363.5,734.5C 363.866,731.744 365.2,729.744 367.5,728.5 Z"/></g>
<g><path style="opacity:1" fill="#f9faf9" d="M 724.5,728.5 C 743.503,728.333 762.503,728.5 781.5,729C 783.032,729.7 784.032,730.866 784.5,732.5C 773.631,752.484 762.964,772.484 752.5,792.5C 761.16,793.801 769.827,793.801 778.5,792.5C 784.399,793.435 786.732,796.935 785.5,803C 785.333,805.167 785.167,807.333 785,809.5C 784.692,810.308 784.192,810.975 783.5,811.5C 761.879,812.489 740.212,812.822 718.5,812.5C 718.338,810.473 718.505,808.473 719,806.5C 729.421,787.993 739.587,769.327 749.5,750.5C 748.975,749.808 748.308,749.308 747.5,749C 739.118,748.804 730.785,748.304 722.5,747.5C 721.808,746.975 721.308,746.308 721,745.5C 720.333,740.833 720.333,736.167 721,731.5C 722.145,730.364 723.312,729.364 724.5,728.5 Z"/></g>
<g><path style="opacity:1" fill="#f9faf9" d="M 798.5,728.5 C 809.526,728.896 820.859,729.063 832.5,729C 833.766,729.309 834.933,729.809 836,730.5C 836.667,735.5 836.667,740.5 836,745.5C 834.041,747.788 831.541,749.121 828.5,749.5C 827.063,751.021 826.396,752.855 826.5,755C 827.076,766.555 827.243,778.388 827,790.5C 829.986,792.726 833.32,794.393 837,795.5C 837.667,800.5 837.667,805.5 837,810.5C 836.5,811.667 835.667,812.5 834.5,813C 823.833,813.667 813.167,813.667 802.5,813C 799.905,812.774 797.405,812.274 795,811.5C 794.333,806.5 794.333,801.5 795,796.5C 797.192,794.765 799.692,793.598 802.5,793C 804.167,791.177 805.167,789.01 805.5,786.5C 805.315,775.054 805.315,763.554 805.5,752C 802.667,749.609 799.5,747.776 796,746.5C 794,741.167 794,735.833 796,730.5C 796.995,729.934 797.828,729.267 798.5,728.5 Z"/></g>
<g><path style="opacity:1" fill="#f9faf9" d="M 854.5,728.5 C 857.425,728.46 860.091,729.293 862.5,731C 874.722,743.557 887.222,755.724 900,767.5C 901.167,755.277 902,742.944 902.5,730.5C 903.376,729.749 904.376,729.249 905.5,729C 909.306,728.926 912.973,728.76 916.5,728.5C 919.387,728.627 921.887,729.627 924,731.5C 923.213,749.058 923.38,766.725 924.5,784.5C 924.333,792.5 924.167,800.5 924,808.5C 923.681,811.486 922.014,813.153 919,813.5C 916.889,812.528 914.722,811.695 912.5,811C 901.011,798.011 888.677,785.844 875.5,774.5C 874.815,786.865 874.148,799.198 873.5,811.5C 872.562,812.553 871.395,813.22 870,813.5C 865.57,813.377 861.07,813.377 856.5,813.5C 854.893,813.363 853.559,812.696 852.5,811.5C 851.343,784.876 851.176,758.209 852,731.5C 852.698,730.309 853.531,729.309 854.5,728.5 Z"/></g>
<g><path style="opacity:1" fill="#f9faf9" d="M 942.5,728.5 C 953.362,728.906 964.362,729.073 975.5,729C 977.848,729.11 979.348,730.277 980,732.5C 981.01,737.558 980.51,742.391 978.5,747C 975.78,747.797 973.28,748.963 971,750.5C 970.333,764.167 970.333,777.833 971,791.5C 973.724,792.892 976.557,794.058 979.5,795C 980.98,796.299 981.646,797.966 981.5,800C 981.014,803.04 980.847,806.207 981,809.5C 980.5,811.333 979.333,812.5 977.5,813C 964.791,813.874 952.124,813.54 939.5,812C 937.038,806.604 936.871,801.104 939,795.5C 941.351,794.286 943.851,793.452 946.5,793C 947.126,792.25 947.626,791.416 948,790.5C 948.667,777.167 948.667,763.833 948,750.5C 944.731,749.199 941.731,747.533 939,745.5C 938.333,740.833 938.333,736.167 939,731.5C 940.145,730.364 941.312,729.364 942.5,728.5 Z"/></g>
<g><path style="opacity:1" fill="#f9faf9" d="M 187.5,739.5 C 198.961,740.793 203.795,747.126 202,758.5C 193.869,785.894 185.536,813.227 177,840.5C 169.693,849.218 162.026,849.552 154,841.5C 149.713,831.295 145.046,821.295 140,811.5C 136.833,808.333 133.667,805.167 130.5,802C 120.952,797.392 111.285,793.059 101.5,789C 93.5086,781.375 93.5086,773.709 101.5,766C 130.249,757.025 158.916,748.192 187.5,739.5 Z"/></g>
</svg>
